<?xml version="1.0"?>
<svg xmlns="http://www.w3.org/2000/svg" xmlns:xlink="http://www.w3.org/1999/xlink" xmlns:svgjs="http://svgjs.com/svgjs" version="1.1" width="512" height="512" x="0" y="0" viewBox="0 0 64 64" style="enable-background:new 0 0 512 512" xml:space="preserve" class=""><g><g xmlns="http://www.w3.org/2000/svg"><g><path d="m42.54 5.891h-.01c-2.35-3.271-6.19-5.391-10.53-5.391s-8.18 2.12-10.53 5.391c-1.55 2.139-2.47 4.769-2.47 7.609 0 2.851.92 5.48 2.47 7.62 2.36 3.26 6.2 5.38 10.53 5.38s8.17-2.12 10.53-5.38c1.56-2.14 2.47-4.77 2.47-7.62 0-2.84-.92-5.47-2.46-7.609z" fill="#f7f443" data-original="#fc6e51" style="" class=""/></g><g><path d="m18 36.5c0 1.101-.89 2-2 2-1.1 0-2-.899-2-2 0-1.109.9-2 2-2 1.11 0 2 .891 2 2z" fill="#656d78" data-original="#656d78" style="" class=""/></g><g><path d="m28 58.5c1.11 0 2 .9 2 2 0 1.11-.89 2-2 2-1.1 0-2-.89-2-2 0-1.1.9-2 2-2z" fill="#656d78" data-original="#656d78" style="" class=""/></g><g><path d="m8 46.5c1.11 0 2 .891 2 2 0 1.101-.89 2-2 2-1.1 0-2-.899-2-2 0-1.109.9-2 2-2z" fill="#656d78" data-original="#656d78" style="" class=""/></g><g><path d="m50 36.5c0 1.101-.9 2-2 2s-2-.899-2-2c0-1.109.9-2 2-2h.02c1.09.01 1.98.9 1.98 2z" fill="#656d78" data-original="#656d78" style="" class=""/></g><g><path d="m44 58.5c1.1 0 2 .9 2 2 0 1.11-.9 2-2 2s-2-.89-2-2c0-1.1.9-2 2-2z" fill="#656d78" data-original="#656d78" style="" class=""/></g><g><path d="m12.02 58.5c1.11 0 2 .9 2 2 0 1.11-.89 2-2 2-1.1 0-2-.89-2-2 0-1.09.891-1.99 1.98-2z" fill="#656d78" data-original="#656d78" style="" class=""/></g><g><path d="m60 58.5c1.1 0 2 .9 2 2 0 1.11-.9 2-2 2s-2-.89-2-2c0-1.1.9-2 2-2z" fill="#656d78" data-original="#656d78" style="" class=""/></g><g><path d="m36 58.5c1.1 0 2 .9 2 2 0 1.11-.9 2-2 2s-2-.89-2-2c0-1.1.9-2 2-2z" fill="#656d78" data-original="#656d78" style="" class=""/></g><g><path d="m20 58.5c1.11 0 2 .9 2 2 0 1.11-.89 2-2 2-1.1 0-2-.89-2-2 0-1.1.9-2 2-2z" fill="#656d78" data-original="#656d78" style="" class=""/></g><g><path d="m56 46.5c1.1 0 2 .891 2 2 0 1.101-.9 2-2 2s-2-.899-2-2c0-1.109.9-2 2-2z" fill="#656d78" data-original="#656d78" style="" class=""/></g><g><path d="m24 46.5c1.11 0 2 .891 2 2 0 1.101-.89 2-2 2-1.1 0-2-.899-2-2 0-1.109.9-2 2-2z" fill="#656d78" data-original="#656d78" style="" class=""/></g><g><path d="m52 58.5c1.1 0 2 .9 2 2 0 1.11-.9 2-2 2s-2-.89-2-2c0-1.1.9-2 2-2z" fill="#656d78" data-original="#656d78" style="" class=""/></g><g><path d="m40 46.5c1.1 0 2 .891 2 2 0 1.101-.9 2-2 2s-2-.899-2-2c0-1.109.9-2 2-2z" fill="#656d78" data-original="#656d78" style="" class=""/></g><g><path d="m4 58.5c1.11 0 2 .9 2 2 0 1.11-.89 2-2 2-1.1 0-2-.89-2-2 0-1.1.9-2 2-2z" fill="#656d78" data-original="#656d78" style="" class=""/></g><g><g><path d="m4.002 59.502c-.553 0-1-.447-1-1v-4c0-.553.447-1 1-1s1 .447 1 1v4c0 .553-.447 1-1 1z" fill="#545c66" data-original="#545c66" style="" class=""/></g><g><path d="m12.002 55.502h-8c-.553 0-1-.447-1-1s.447-1 1-1h8c.553 0 1 .447 1 1s-.447 1-1 1z" fill="#545c66" data-original="#545c66" style="" class=""/></g><g><path d="m12.002 59.502c-.553 0-1-.447-1-1v-4c0-.553.447-1 1-1s1 .447 1 1v4c0 .553-.447 1-1 1z" fill="#545c66" data-original="#545c66" style="" class=""/></g><g><path d="m8.002 55.494c-.553 0-1-.447-1-1v-4c0-.553.447-1 1-1s1 .447 1 1v4c0 .553-.447 1-1 1z" fill="#545c66" data-original="#545c66" style="" class=""/></g></g><g><g><path d="m7.994 47.502c-.553 0-1-.447-1-1v-4c0-.553.447-1 1-1s1 .447 1 1v4c0 .553-.447 1-1 1z" fill="#545c66" data-original="#545c66" style="" class=""/></g><g><path d="m24.002 43.502h-16.008c-.553 0-1-.447-1-1s.447-1 1-1h16.008c.553 0 1 .447 1 1s-.447 1-1 1z" fill="#545c66" data-original="#545c66" style="" class=""/></g><g><path d="m24.002 47.502c-.553 0-1-.447-1-1v-4c0-.553.447-1 1-1s1 .447 1 1v4c0 .553-.447 1-1 1z" fill="#545c66" data-original="#545c66" style="" class=""/></g><g><path d="m15.998 43.494c-.553 0-1-.447-1-1v-4c0-.553.447-1 1-1s1 .447 1 1v4c0 .553-.447 1-1 1z" fill="#545c66" data-original="#545c66" style="" class=""/></g></g><g><g><path d="m15.997 35.5c-.553 0-1-.447-1-1v-4.002c0-.553.447-1 1-1s1 .447 1 1v4.002c0 .553-.447 1-1 1z" fill="#545c66" data-original="#545c66" style="" class=""/></g><g><path d="m48.021 31.498h-32.024c-.553 0-1-.447-1-1s.447-1 1-1h32.023c.553 0 1 .447 1 1s-.447 1-.999 1z" fill="#545c66" data-original="#545c66" style="" class=""/></g><g><path d="m48.021 35.5c-.553 0-1-.447-1-1v-4.002c0-.553.447-1 1-1s1 .447 1 1v4.002c0 .553-.448 1-1 1z" fill="#545c66" data-original="#545c66" style="" class=""/></g><g><path d="m32 31.492c-.553 0-1-.447-1-1v-4.002c0-.553.447-1 1-1s1 .447 1 1v4.002c0 .553-.447 1-1 1z" fill="#545c66" data-original="#545c66" style="" class=""/></g></g><g><g><path d="m39.994 47.502c-.553 0-1-.447-1-1v-4c0-.553.447-1 1-1s1 .447 1 1v4c0 .553-.447 1-1 1z" fill="#545c66" data-original="#545c66" style="" class=""/></g><g><path d="m56.002 43.502h-16.008c-.553 0-1-.447-1-1s.447-1 1-1h16.008c.553 0 1 .447 1 1s-.447 1-1 1z" fill="#545c66" data-original="#545c66" style="" class=""/></g><g><path d="m56.002 47.502c-.553 0-1-.447-1-1v-4c0-.553.447-1 1-1s1 .447 1 1v4c0 .553-.447 1-1 1z" fill="#545c66" data-original="#545c66" style="" class=""/></g><g><path d="m47.998 43.494c-.553 0-1-.447-1-1v-4c0-.553.447-1 1-1s1 .447 1 1v4c0 .553-.447 1-1 1z" fill="#545c66" data-original="#545c66" style="" class=""/></g></g><g><path d="m20.002 59.502c-.553 0-1-.447-1-1v-4c0-.553.447-1 1-1s1 .447 1 1v4c0 .553-.447 1-1 1z" fill="#545c66" data-original="#545c66" style="" class=""/></g><g><path d="m28.002 55.502h-8c-.553 0-1-.447-1-1s.447-1 1-1h8c.553 0 1 .447 1 1s-.447 1-1 1z" fill="#545c66" data-original="#545c66" style="" class=""/></g><g><path d="m28.002 59.502c-.553 0-1-.447-1-1v-4c0-.553.447-1 1-1s1 .447 1 1v4c0 .553-.447 1-1 1z" fill="#545c66" data-original="#545c66" style="" class=""/></g><g><path d="m24.002 55.494c-.553 0-1-.447-1-1v-4c0-.553.447-1 1-1s1 .447 1 1v4c0 .553-.447 1-1 1z" fill="#545c66" data-original="#545c66" style="" class=""/></g><g><path d="m35.998 59.502c-.553 0-1-.447-1-1v-4c0-.553.447-1 1-1s1 .447 1 1v4c0 .553-.447 1-1 1z" fill="#545c66" data-original="#545c66" style="" class=""/></g><g><path d="m43.998 55.502h-8c-.553 0-1-.447-1-1s.447-1 1-1h8c.553 0 1 .447 1 1s-.447 1-1 1z" fill="#545c66" data-original="#545c66" style="" class=""/></g><g><path d="m43.998 59.502c-.553 0-1-.447-1-1v-4c0-.553.447-1 1-1s1 .447 1 1v4c0 .553-.447 1-1 1z" fill="#545c66" data-original="#545c66" style="" class=""/></g><g><path d="m39.998 55.494c-.553 0-1-.447-1-1v-4c0-.553.447-1 1-1s1 .447 1 1v4c0 .553-.447 1-1 1z" fill="#545c66" data-original="#545c66" style="" class=""/></g><g><path d="m51.998 59.502c-.553 0-1-.447-1-1v-4c0-.553.447-1 1-1s1 .447 1 1v4c0 .553-.447 1-1 1z" fill="#545c66" data-original="#545c66" style="" class=""/></g><g><path d="m59.998 55.502h-8c-.553 0-1-.447-1-1s.447-1 1-1h8c.553 0 1 .447 1 1s-.447 1-1 1z" fill="#545c66" data-original="#545c66" style="" class=""/></g><g><path d="m59.998 59.502c-.553 0-1-.447-1-1v-4c0-.553.447-1 1-1s1 .447 1 1v4c0 .553-.447 1-1 1z" fill="#545c66" data-original="#545c66" style="" class=""/></g><g><path d="m55.998 55.494c-.553 0-1-.447-1-1v-4c0-.553.447-1 1-1s1 .447 1 1v4c0 .553-.447 1-1 1z" fill="#545c66" data-original="#545c66" style="" class=""/></g><path d="m45 13.5c0-.337-.015-.67-.04-1h-5.88c.347-2.421 1.933-4.478 4.203-5.436-.229-.403-.473-.799-.743-1.174h-.01c-.127-.176-.274-.335-.409-.505-2.804 1.337-4.717 4.017-5.059 7.114h-4.062v-11.938c-.332-.026-.661-.061-1-.061s-.668.035-1 .061v11.939h-4.063c-.342-3.098-2.256-5.777-5.059-7.113-.136.169-.283.328-.409.504-.272.376-.518.772-.749 1.177 2.268.958 3.853 3.013 4.199 5.433h-5.88c-.025.33-.04.663-.04 1s.015.67.04 1h5.88c-.347 2.421-1.934 4.478-4.204 5.436.233.407.479.807.754 1.185.125.173.271.329.404.496 2.806-1.336 4.721-4.018 5.063-7.116h4.064v11.939c.332.025.661.061 1 .061s.668-.035 1-.061v-11.941h4.063c.343 3.099 2.258 5.779 5.063 7.116.134-.167.279-.323.405-.496.275-.378.522-.776.757-1.184-2.272-.958-3.86-3.015-4.207-5.437h5.88c.024-.329.039-.662.039-.999z" fill="#ffffff" data-original="#e9573f" style="" class=""/><g><path d="m35.998 63.5c-1.654 0-3-1.346-3-3s1.346-3 3-3 3 1.346 3 3-1.346 3-3 3zm0-4c-.552 0-1 .448-1 1s.448 1 1 1 1-.448 1-1-.448-1-1-1z" fill="#656d78" data-original="#656d78" style="" class=""/></g><g><path d="m43.998 63.5c-1.654 0-3-1.346-3-3s1.346-3 3-3 3 1.346 3 3-1.346 3-3 3zm0-4c-.552 0-1 .448-1 1s.448 1 1 1 1-.448 1-1-.448-1-1-1z" fill="#656d78" data-original="#656d78" style="" class=""/></g><g><path d="m51.998 63.5c-1.654 0-3-1.346-3-3s1.346-3 3-3 3 1.346 3 3-1.346 3-3 3zm0-4c-.552 0-1 .448-1 1s.448 1 1 1 1-.448 1-1-.448-1-1-1z" fill="#656d78" data-original="#656d78" style="" class=""/></g><g><path d="m59.998 63.5c-1.654 0-3-1.346-3-3s1.346-3 3-3 3 1.346 3 3-1.346 3-3 3zm0-4c-.552 0-1 .448-1 1s.448 1 1 1 1-.448 1-1-.448-1-1-1z" fill="#656d78" data-original="#656d78" style="" class=""/></g><g><path d="m47.998 39.496c-1.654 0-3-1.346-3-3s1.346-3 3-3 3 1.346 3 3-1.346 3-3 3zm0-4c-.552 0-1 .448-1 1s.448 1 1 1 1-.448 1-1-.448-1-1-1z" fill="#656d78" data-original="#656d78" style="" class=""/></g><g><path d="m39.998 51.496c-1.654 0-3-1.346-3-3s1.346-3 3-3 3 1.346 3 3-1.346 3-3 3zm0-4c-.552 0-1 .448-1 1s.448 1 1 1 1-.448 1-1-.448-1-1-1z" fill="#656d78" data-original="#656d78" style="" class=""/></g><g><path d="m55.998 51.496c-1.654 0-3-1.346-3-3s1.346-3 3-3 3 1.346 3 3-1.346 3-3 3zm0-4c-.552 0-1 .448-1 1s.448 1 1 1 1-.448 1-1-.448-1-1-1z" fill="#656d78" data-original="#656d78" style="" class=""/></g><g><path d="m4.002 63.5c-1.654 0-3-1.346-3-3s1.346-3 3-3 3 1.346 3 3-1.346 3-3 3zm0-4c-.552 0-1 .448-1 1s.448 1 1 1 1-.448 1-1-.448-1-1-1z" fill="#656d78" data-original="#656d78" style="" class=""/></g><g><path d="m12.022 63.5c-1.654 0-3-1.346-3-3s1.346-3 3-3 3 1.346 3 3-1.345 3-3 3zm0-4c-.552 0-1 .448-1 1s.448 1 1 1 1-.448 1-1-.448-1-1-1z" fill="#656d78" data-original="#656d78" style="" class=""/></g><g><path d="m20.002 63.5c-1.654 0-3-1.346-3-3s1.346-3 3-3 3 1.346 3 3-1.346 3-3 3zm0-4c-.552 0-1 .448-1 1s.448 1 1 1 1-.448 1-1-.448-1-1-1z" fill="#656d78" data-original="#656d78" style="" class=""/></g><g><path d="m28.002 63.5c-1.654 0-3-1.346-3-3s1.346-3 3-3 3 1.346 3 3-1.346 3-3 3zm0-4c-.552 0-1 .448-1 1s.448 1 1 1 1-.448 1-1-.448-1-1-1z" fill="#656d78" data-original="#656d78" style="" class=""/></g><g><path d="m8.002 51.496c-1.654 0-3-1.346-3-3s1.346-3 3-3 3 1.346 3 3-1.346 3-3 3zm0-4c-.552 0-1 .448-1 1s.448 1 1 1 1-.448 1-1-.448-1-1-1z" fill="#656d78" data-original="#656d78" style="" class=""/></g><g><path d="m24.002 51.496c-1.654 0-3-1.346-3-3s1.346-3 3-3 3 1.346 3 3-1.346 3-3 3zm0-4c-.552 0-1 .448-1 1s.448 1 1 1 1-.448 1-1-.448-1-1-1z" fill="#656d78" data-original="#656d78" style="" class=""/></g><g><path d="m16.002 39.496c-1.654 0-3-1.346-3-3s1.346-3 3-3 3 1.346 3 3-1.346 3-3 3zm0-4c-.552 0-1 .448-1 1s.448 1 1 1 1-.448 1-1-.448-1-1-1z" fill="#656d78" data-original="#656d78" style="" class=""/></g></g></g></svg>
